solid 
   facet normal 0 0 -1
      outer loop
         vertex -29.59084 -4.937838 0
         vertex -30 7.34788E-15 0
         vertex -28.37452 -9.740984 0
      endloop
   endfacet
   facet normal 0 0 -1
      outer loop
         vertex -30 7.34788E-15 0
         vertex -29.59084 4.937838 0
         vertex -28.37452 -9.740984 0
      endloop
   endfacet
   facet normal 0 0 -1
      outer loop
         vertex -28.37452 -9.740984 0
         vertex -29.59084 4.937838 0
         vertex -26.38421 -14.27842 0
      endloop
   endfacet
   facet normal 0 0 -1
      outer loop
         vertex -29.59084 4.937838 0
         vertex -28.37452 9.740984 0
         vertex -26.38421 -14.27842 0
      endloop
   endfacet
   facet normal 0 0 -1
      outer loop
         vertex -26.38421 -14.27842 0
         vertex -28.37452 9.740984 0
         vertex -23.67422 -18.42638 0
      endloop
   endfacet
   facet normal 0 0 -1
      outer loop
         vertex -28.37452 9.740984 0
         vertex -26.38421 14.27842 0
         vertex -23.67422 -18.42638 0
      endloop
   endfacet
   facet normal 0 0 -1
      outer loop
         vertex -23.67422 -18.42638 0
         vertex -26.38421 14.27842 0
         vertex -20.31845 -22.07172 0
      endloop
   endfacet
   facet normal 0 0 -1
      outer loop
         vertex -26.38421 14.27842 0
         vertex -23.67422 18.42638 0
         vertex -20.31845 -22.07172 0
      endloop
   endfacet
   facet normal 0 0 -1
      outer loop
         vertex -20.31845 -22.07172 0
         vertex -23.67422 18.42638 0
         vertex -16.40845 -25.11499 0
      endloop
   endfacet
   facet normal 0 0 -1
      outer loop
         vertex -23.67422 18.42638 0
         vertex -20.31845 22.07172 0
         vertex -16.40845 -25.11499 0
      endloop
   endfacet
   facet normal 0 0 -1
      outer loop
         vertex -16.40845 -25.11499 0
         vertex -20.31845 22.07172 0
         vertex -12.05086 -27.4732 0
      endloop
   endfacet
   facet normal 0 0 -1
      outer loop
         vertex -20.31845 22.07172 0
         vertex -16.40845 25.11499 0
         vertex -12.05086 -27.4732 0
      endloop
   endfacet
   facet normal 0 0 -1
      outer loop
         vertex -12.05086 -27.4732 0
         vertex -16.40845 25.11499 0
         vertex -7.364564 -29.08201 0
      endloop
   endfacet
   facet normal 0 0 -1
      outer loop
         vertex -16.40845 25.11499 0
         vertex -12.05086 27.4732 0
         vertex -7.364564 -29.08201 0
      endloop
   endfacet
   facet normal 0 0 -1
      outer loop
         vertex -7.364564 -29.08201 0
         vertex -12.05086 27.4732 0
         vertex -2.47738 -29.89754 0
      endloop
   endfacet
   facet normal 0 0 -1
      outer loop
         vertex -12.05086 27.4732 0
         vertex -6 1.469576E-15 0
         vertex -2.47738 -29.89754 0
      endloop
   endfacet
   facet normal 0 0 -1
      outer loop
         vertex -2.47738 -29.89754 0
         vertex -5.594833 -2.16745 0
         vertex 2.47738 -29.89754 0
      endloop
   endfacet
   facet normal 0 0 -1
      outer loop
         vertex -5.594833 -2.16745 0
         vertex -4.434053 -4.042174 0
         vertex 2.47738 -29.89754 0
      endloop
   endfacet
   facet normal 0 0 -1
      outer loop
         vertex 2.47738 -29.89754 0
         vertex -4.434053 -4.042174 0
         vertex 7.364564 -29.08201 0
      endloop
   endfacet
   facet normal 0 0 -1
      outer loop
         vertex -4.434053 -4.042174 0
         vertex -2.67443 -5.37098 0
         vertex 7.364564 -29.08201 0
      endloop
   endfacet
   facet normal 0 0 -1
      outer loop
         vertex 7.364564 -29.08201 0
         vertex -2.67443 -5.37098 0
         vertex 12.05086 -27.4732 0
      endloop
   endfacet
   facet normal 0 0 -1
      outer loop
         vertex -2.67443 -5.37098 0
         vertex -0.5536101 -5.974405 0
         vertex 12.05086 -27.4732 0
      endloop
   endfacet
   facet normal 0 0 -1
      outer loop
         vertex 12.05086 -27.4732 0
         vertex -0.5536101 -5.974405 0
         vertex 16.40845 -25.11499 0
      endloop
   endfacet
   facet normal 0 0 -1
      outer loop
         vertex -0.5536101 -5.974405 0
         vertex 1.641978 -5.770954 0
         vertex 16.40845 -25.11499 0
      endloop
   endfacet
   facet normal 0 0 -1
      outer loop
         vertex 16.40845 -25.11499 0
         vertex 1.641978 -5.770954 0
         vertex 20.31845 -22.07172 0
      endloop
   endfacet
   facet normal 0 0 -1
      outer loop
         vertex 1.641978 -5.770954 0
         vertex 3.615808 -4.788104 0
         vertex 20.31845 -22.07172 0
      endloop
   endfacet
   facet normal 0 0 -1
      outer loop
         vertex 20.31845 -22.07172 0
         vertex 3.615808 -4.788104 0
         vertex 23.67422 -18.42638 0
      endloop
   endfacet
   facet normal 0 0 -1
      outer loop
         vertex 3.615808 -4.788104 0
         vertex 5.101303 -3.158593 0
         vertex 23.67422 -18.42638 0
      endloop
   endfacet
   facet normal 0 0 -1
      outer loop
         vertex 23.67422 -18.42638 0
         vertex 5.101303 -3.158593 0
         vertex 26.38421 -14.27842 0
      endloop
   endfacet
   facet normal 0 0 -1
      outer loop
         vertex 5.101303 -3.158593 0
         vertex 5.897839 -1.102497 0
         vertex 26.38421 -14.27842 0
      endloop
   endfacet
   facet normal 0 0 -1
      outer loop
         vertex 26.38421 -14.27842 0
         vertex 5.897839 -1.102497 0
         vertex 28.37452 -9.740984 0
      endloop
   endfacet
   facet normal 0 0 -1
      outer loop
         vertex 5.897839 -1.102497 0
         vertex 5.897839 1.102497 0
         vertex 28.37452 -9.740984 0
      endloop
   endfacet
   facet normal 0 0 -1
      outer loop
         vertex 28.37452 -9.740984 0
         vertex 5.897839 1.102497 0
         vertex 29.59084 -4.937838 0
      endloop
   endfacet
   facet normal 0 0 -1
      outer loop
         vertex 5.897839 1.102497 0
         vertex 5.101303 3.158593 0
         vertex 29.59084 -4.937838 0
      endloop
   endfacet
   facet normal 0 0 -1
      outer loop
         vertex 29.59084 -4.937838 0
         vertex 5.101303 3.158593 0
         vertex 30 -7.34788E-15 0
      endloop
   endfacet
   facet normal 0 0 -1
      outer loop
         vertex 5.101303 3.158593 0
         vertex 3.615808 4.788104 0
         vertex 30 -7.34788E-15 0
      endloop
   endfacet
   facet normal 0 0 -1
      outer loop
         vertex 30 -7.34788E-15 0
         vertex 3.615808 4.788104 0
         vertex 29.59084 4.937838 0
      endloop
   endfacet
   facet normal 0 0 -1
      outer loop
         vertex 3.615808 4.788104 0
         vertex 1.641978 5.770954 0
         vertex 29.59084 4.937838 0
      endloop
   endfacet
   facet normal 0 0 -1
      outer loop
         vertex 29.59084 4.937838 0
         vertex 1.641978 5.770954 0
         vertex 28.37452 9.740984 0
      endloop
   endfacet
   facet normal 0 0 -1
      outer loop
         vertex 1.641978 5.770954 0
         vertex -0.5536101 5.974405 0
         vertex 28.37452 9.740984 0
      endloop
   endfacet
   facet normal 0 0 -1
      outer loop
         vertex 28.37452 9.740984 0
         vertex -0.5536101 5.974405 0
         vertex 26.38421 14.27842 0
      endloop
   endfacet
   facet normal 0 0 -1
      outer loop
         vertex -0.5536101 5.974405 0
         vertex -2.67443 5.37098 0
         vertex 26.38421 14.27842 0
      endloop
   endfacet
   facet normal 0 0 -1
      outer loop
         vertex 26.38421 14.27842 0
         vertex -2.67443 5.37098 0
         vertex 23.67422 18.42638 0
      endloop
   endfacet
   facet normal 0 0 -1
      outer loop
         vertex -6 1.469576E-15 0
         vertex -12.05086 27.4732 0
         vertex -5.594833 2.16745 0
      endloop
   endfacet
   facet normal 0 0 -1
      outer loop
         vertex -5.594833 2.16745 0
         vertex -12.05086 27.4732 0
         vertex -4.434053 4.042174 0
      endloop
   endfacet
   facet normal 0 0 -1
      outer loop
         vertex -12.05086 27.4732 0
         vertex -7.364564 29.08201 0
         vertex -4.434053 4.042174 0
      endloop
   endfacet
   facet normal 0 0 -1
      outer loop
         vertex -4.434053 4.042174 0
         vertex -7.364564 29.08201 0
         vertex -2.67443 5.37098 0
      endloop
   endfacet
   facet normal 0 0 -1
      outer loop
         vertex -7.364564 29.08201 0
         vertex -2.47738 29.89754 0
         vertex -2.67443 5.37098 0
      endloop
   endfacet
   facet normal 0 0 -1
      outer loop
         vertex -2.67443 5.37098 0
         vertex -2.47738 29.89754 0
         vertex 23.67422 18.42638 0
      endloop
   endfacet
   facet normal 0 0 -1
      outer loop
         vertex -2.47738 29.89754 0
         vertex 2.47738 29.89754 0
         vertex 23.67422 18.42638 0
      endloop
   endfacet
   facet normal 0 0 -1
      outer loop
         vertex 23.67422 18.42638 0
         vertex 2.47738 29.89754 0
         vertex 20.31845 22.07172 0
      endloop
   endfacet
   facet normal 0 0 -1
      outer loop
         vertex 2.47738 29.89754 0
         vertex 7.364564 29.08201 0
         vertex 20.31845 22.07172 0
      endloop
   endfacet
   facet normal 0 0 -1
      outer loop
         vertex 20.31845 22.07172 0
         vertex 7.364564 29.08201 0
         vertex 16.40845 25.11499 0
      endloop
   endfacet
   facet normal 0 0 -1
      outer loop
         vertex 7.364564 29.08201 0
         vertex 12.05086 27.4732 0
         vertex 16.40845 25.11499 0
      endloop
   endfacet
   facet normal 0 0 -1
      outer loop
         vertex -5.594833 -2.16745 0
         vertex -2.47738 -29.89754 0
         vertex -6 1.469576E-15 0
      endloop
   endfacet
   facet normal 0 0 1
      outer loop
         vertex -29.59084 4.937838 8
         vertex -30 7.34788E-15 8
         vertex -28.37452 9.740984 8
      endloop
   endfacet
   facet normal 0 0 1
      outer loop
         vertex -30 7.34788E-15 8
         vertex -29.59084 -4.937838 8
         vertex -28.37452 9.740984 8
      endloop
   endfacet
   facet normal 0 0 1
      outer loop
         vertex -28.37452 9.740984 8
         vertex -29.59084 -4.937838 8
         vertex -26.38421 14.27842 8
      endloop
   endfacet
   facet normal 0 0 1
      outer loop
         vertex -29.59084 -4.937838 8
         vertex -28.37452 -9.740984 8
         vertex -26.38421 14.27842 8
      endloop
   endfacet
   facet normal 0 0 1
      outer loop
         vertex -26.38421 14.27842 8
         vertex -28.37452 -9.740984 8
         vertex -23.67422 18.42638 8
      endloop
   endfacet
   facet normal 0 0 1
      outer loop
         vertex -28.37452 -9.740984 8
         vertex -26.38421 -14.27842 8
         vertex -23.67422 18.42638 8
      endloop
   endfacet
   facet normal 0 0 1
      outer loop
         vertex -23.67422 18.42638 8
         vertex -26.38421 -14.27842 8
         vertex -20.31845 22.07172 8
      endloop
   endfacet
   facet normal 0 0 1
      outer loop
         vertex -26.38421 -14.27842 8
         vertex -23.67422 -18.42638 8
         vertex -20.31845 22.07172 8
      endloop
   endfacet
   facet normal 0 0 1
      outer loop
         vertex -20.31845 22.07172 8
         vertex -23.67422 -18.42638 8
         vertex -16.40845 25.11499 8
      endloop
   endfacet
   facet normal 0 0 1
      outer loop
         vertex -23.67422 -18.42638 8
         vertex -20.31845 -22.07172 8
         vertex -16.40845 25.11499 8
      endloop
   endfacet
   facet normal 0 0 1
      outer loop
         vertex -16.40845 25.11499 8
         vertex -20.31845 -22.07172 8
         vertex -12.05086 27.4732 8
      endloop
   endfacet
   facet normal 0 0 1
      outer loop
         vertex -20.31845 -22.07172 8
         vertex -16.40845 -25.11499 8
         vertex -12.05086 27.4732 8
      endloop
   endfacet
   facet normal 0 0 1
      outer loop
         vertex -12.05086 27.4732 8
         vertex -16.40845 -25.11499 8
         vertex -7.364564 29.08201 8
      endloop
   endfacet
   facet normal 0 0 1
      outer loop
         vertex -16.40845 -25.11499 8
         vertex -12.05086 -27.4732 8
         vertex -7.364564 29.08201 8
      endloop
   endfacet
   facet normal 0 0 1
      outer loop
         vertex -7.364564 29.08201 8
         vertex -12.05086 -27.4732 8
         vertex -2.47738 29.89754 8
      endloop
   endfacet
   facet normal 0 0 1
      outer loop
         vertex -12.05086 -27.4732 8
         vertex -6 1.469576E-15 8
         vertex -2.47738 29.89754 8
      endloop
   endfacet
   facet normal 0 0 1
      outer loop
         vertex -2.47738 29.89754 8
         vertex -5.594833 2.16745 8
         vertex 2.47738 29.89754 8
      endloop
   endfacet
   facet normal 0 0 1
      outer loop
         vertex -5.594833 2.16745 8
         vertex -4.434053 4.042174 8
         vertex 2.47738 29.89754 8
      endloop
   endfacet
   facet normal 0 0 1
      outer loop
         vertex 2.47738 29.89754 8
         vertex -4.434053 4.042174 8
         vertex 7.364564 29.08201 8
      endloop
   endfacet
   facet normal 0 0 1
      outer loop
         vertex -4.434053 4.042174 8
         vertex -2.67443 5.37098 8
         vertex 7.364564 29.08201 8
      endloop
   endfacet
   facet normal 0 0 1
      outer loop
         vertex 7.364564 29.08201 8
         vertex -2.67443 5.37098 8
         vertex 12.05086 27.4732 8
      endloop
   endfacet
   facet normal 0 0 1
      outer loop
         vertex -2.67443 5.37098 8
         vertex -0.5536101 5.974405 8
         vertex 12.05086 27.4732 8
      endloop
   endfacet
   facet normal 0 0 1
      outer loop
         vertex 12.05086 27.4732 8
         vertex -0.5536101 5.974405 8
         vertex 16.40845 25.11499 8
      endloop
   endfacet
   facet normal 0 0 1
      outer loop
         vertex -0.5536101 5.974405 8
         vertex 1.641978 5.770954 8
         vertex 16.40845 25.11499 8
      endloop
   endfacet
   facet normal 0 0 1
      outer loop
         vertex 16.40845 25.11499 8
         vertex 1.641978 5.770954 8
         vertex 20.31845 22.07172 8
      endloop
   endfacet
   facet normal 0 0 1
      outer loop
         vertex 1.641978 5.770954 8
         vertex 3.615808 4.788104 8
         vertex 20.31845 22.07172 8
      endloop
   endfacet
   facet normal 0 0 1
      outer loop
         vertex 20.31845 22.07172 8
         vertex 3.615808 4.788104 8
         vertex 23.67422 18.42638 8
      endloop
   endfacet
   facet normal 0 0 1
      outer loop
         vertex 3.615808 4.788104 8
         vertex 5.101303 3.158593 8
         vertex 23.67422 18.42638 8
      endloop
   endfacet
   facet normal 0 0 1
      outer loop
         vertex 23.67422 18.42638 8
         vertex 5.101303 3.158593 8
         vertex 26.38421 14.27842 8
      endloop
   endfacet
   facet normal 0 0 1
      outer loop
         vertex 5.101303 3.158593 8
         vertex 5.897839 1.102497 8
         vertex 26.38421 14.27842 8
      endloop
   endfacet
   facet normal 0 0 1
      outer loop
         vertex 26.38421 14.27842 8
         vertex 5.897839 1.102497 8
         vertex 28.37452 9.740984 8
      endloop
   endfacet
   facet normal 0 0 1
      outer loop
         vertex 5.897839 1.102497 8
         vertex 5.897839 -1.102497 8
         vertex 28.37452 9.740984 8
      endloop
   endfacet
   facet normal 0 0 1
      outer loop
         vertex 28.37452 9.740984 8
         vertex 5.897839 -1.102497 8
         vertex 29.59084 4.937838 8
      endloop
   endfacet
   facet normal 0 0 1
      outer loop
         vertex 5.897839 -1.102497 8
         vertex 5.101303 -3.158593 8
         vertex 29.59084 4.937838 8
      endloop
   endfacet
   facet normal 0 0 1
      outer loop
         vertex 29.59084 4.937838 8
         vertex 5.101303 -3.158593 8
         vertex 30 -7.34788E-15 8
      endloop
   endfacet
   facet normal 0 0 1
      outer loop
         vertex 5.101303 -3.158593 8
         vertex 3.615808 -4.788104 8
         vertex 30 -7.34788E-15 8
      endloop
   endfacet
   facet normal 0 0 1
      outer loop
         vertex 30 -7.34788E-15 8
         vertex 3.615808 -4.788104 8
         vertex 29.59084 -4.937838 8
      endloop
   endfacet
   facet normal 0 0 1
      outer loop
         vertex 3.615808 -4.788104 8
         vertex 1.641978 -5.770954 8
         vertex 29.59084 -4.937838 8
      endloop
   endfacet
   facet normal 0 0 1
      outer loop
         vertex 29.59084 -4.937838 8
         vertex 1.641978 -5.770954 8
         vertex 28.37452 -9.740984 8
      endloop
   endfacet
   facet normal 0 0 1
      outer loop
         vertex 1.641978 -5.770954 8
         vertex -0.5536101 -5.974405 8
         vertex 28.37452 -9.740984 8
      endloop
   endfacet
   facet normal 0 0 1
      outer loop
         vertex 28.37452 -9.740984 8
         vertex -0.5536101 -5.974405 8
         vertex 26.38421 -14.27842 8
      endloop
   endfacet
   facet normal 0 0 1
      outer loop
         vertex -0.5536101 -5.974405 8
         vertex -2.67443 -5.37098 8
         vertex 26.38421 -14.27842 8
      endloop
   endfacet
   facet normal 0 0 1
      outer loop
         vertex 26.38421 -14.27842 8
         vertex -2.67443 -5.37098 8
         vertex 23.67422 -18.42638 8
      endloop
   endfacet
   facet normal 0 0 1
      outer loop
         vertex -6 1.469576E-15 8
         vertex -12.05086 -27.4732 8
         vertex -5.594833 -2.16745 8
      endloop
   endfacet
   facet normal 0 0 1
      outer loop
         vertex -5.594833 -2.16745 8
         vertex -12.05086 -27.4732 8
         vertex -4.434053 -4.042174 8
      endloop
   endfacet
   facet normal 0 0 1
      outer loop
         vertex -12.05086 -27.4732 8
         vertex -7.364564 -29.08201 8
         vertex -4.434053 -4.042174 8
      endloop
   endfacet
   facet normal 0 0 1
      outer loop
         vertex -4.434053 -4.042174 8
         vertex -7.364564 -29.08201 8
         vertex -2.67443 -5.37098 8
      endloop
   endfacet
   facet normal 0 0 1
      outer loop
         vertex -7.364564 -29.08201 8
         vertex -2.47738 -29.89754 8
         vertex -2.67443 -5.37098 8
      endloop
   endfacet
   facet normal 0 0 1
      outer loop
         vertex -2.67443 -5.37098 8
         vertex -2.47738 -29.89754 8
         vertex 23.67422 -18.42638 8
      endloop
   endfacet
   facet normal 0 0 1
      outer loop
         vertex -2.47738 -29.89754 8
         vertex 2.47738 -29.89754 8
         vertex 23.67422 -18.42638 8
      endloop
   endfacet
   facet normal 0 0 1
      outer loop
         vertex 23.67422 -18.42638 8
         vertex 2.47738 -29.89754 8
         vertex 20.31845 -22.07172 8
      endloop
   endfacet
   facet normal 0 0 1
      outer loop
         vertex 2.47738 -29.89754 8
         vertex 7.364564 -29.08201 8
         vertex 20.31845 -22.07172 8
      endloop
   endfacet
   facet normal 0 0 1
      outer loop
         vertex 20.31845 -22.07172 8
         vertex 7.364564 -29.08201 8
         vertex 16.40845 -25.11499 8
      endloop
   endfacet
   facet normal 0 0 1
      outer loop
         vertex 7.364564 -29.08201 8
         vertex 12.05086 -27.4732 8
         vertex 16.40845 -25.11499 8
      endloop
   endfacet
   facet normal 0 0 1
      outer loop
         vertex -5.594833 2.16745 8
         vertex -2.47738 29.89754 8
         vertex -6 1.469576E-15 8
      endloop
   endfacet
   facet normal 0.9829731 0.1837495 0
      outer loop
         vertex -5.594833 -2.16745 8
         vertex -5.594833 -2.16745 0
         vertex -6 7.347881E-16 0
      endloop
   endfacet
   facet normal 0.9829731 0.1837495 0
      outer loop
         vertex -6 7.347881E-16 8
         vertex -5.594833 -2.16745 8
         vertex -6 7.347881E-16 0
      endloop
   endfacet
   facet normal 0.8502171 0.5264322 0
      outer loop
         vertex -4.434053 -4.042174 8
         vertex -4.434053 -4.042174 0
         vertex -5.594833 -2.16745 0
      endloop
   endfacet
   facet normal 0.8502171 0.5264322 0
      outer loop
         vertex -5.594833 -2.16745 8
         vertex -4.434053 -4.042174 8
         vertex -5.594833 -2.16745 0
      endloop
   endfacet
   facet normal 0.6026347 0.7980172 0
      outer loop
         vertex -2.67443 -5.37098 8
         vertex -2.67443 -5.37098 0
         vertex -4.434053 -4.042174 0
      endloop
   endfacet
   facet normal 0.6026347 0.7980172 0
      outer loop
         vertex -4.434053 -4.042174 8
         vertex -2.67443 -5.37098 8
         vertex -4.434053 -4.042174 0
      endloop
   endfacet
   facet normal 0.2736631 0.9618256 0
      outer loop
         vertex -0.5536101 -5.974405 8
         vertex -0.5536101 -5.974405 0
         vertex -2.67443 -5.37098 0
      endloop
   endfacet
   facet normal 0.2736631 0.9618256 0
      outer loop
         vertex -2.67443 -5.37098 8
         vertex -0.5536101 -5.974405 8
         vertex -2.67443 -5.37098 0
      endloop
   endfacet
   facet normal -0.09226856 0.9957342 0
      outer loop
         vertex 1.641978 -5.770954 8
         vertex 1.641978 -5.770954 0
         vertex -0.5536101 -5.974405 0
      endloop
   endfacet
   facet normal -0.09226856 0.9957342 0
      outer loop
         vertex -0.5536101 -5.974405 8
         vertex 1.641978 -5.770954 8
         vertex -0.5536101 -5.974405 0
      endloop
   endfacet
   facet normal -0.4457382 0.8951634 0
      outer loop
         vertex 3.615808 -4.788104 8
         vertex 3.615808 -4.788104 0
         vertex 1.641978 -5.770954 0
      endloop
   endfacet
   facet normal -0.4457382 0.8951634 0
      outer loop
         vertex 1.641978 -5.770954 8
         vertex 3.615808 -4.788104 8
         vertex 1.641978 -5.770954 0
      endloop
   endfacet
   facet normal -0.739009 0.6736956 0
      outer loop
         vertex 5.101303 -3.158593 8
         vertex 5.101303 -3.158593 0
         vertex 3.615808 -4.788104 0
      endloop
   endfacet
   facet normal -0.739009 0.6736956 0
      outer loop
         vertex 3.615808 -4.788104 8
         vertex 5.101303 -3.158593 8
         vertex 3.615808 -4.788104 0
      endloop
   endfacet
   facet normal -0.9324722 0.3612417 0
      outer loop
         vertex 5.897839 -1.102497 8
         vertex 5.897839 -1.102497 0
         vertex 5.101303 -3.158593 0
      endloop
   endfacet
   facet normal -0.9324722 0.3612417 0
      outer loop
         vertex 5.101303 -3.158593 8
         vertex 5.897839 -1.102497 8
         vertex 5.101303 -3.158593 0
      endloop
   endfacet
   facet normal -1 0 0
      outer loop
         vertex 5.897839 1.102497 8
         vertex 5.897839 1.102497 0
         vertex 5.897839 -1.102497 0
      endloop
   endfacet
   facet normal -1 0 0
      outer loop
         vertex 5.897839 -1.102497 8
         vertex 5.897839 1.102497 8
         vertex 5.897839 -1.102497 0
      endloop
   endfacet
   facet normal -0.9324722 -0.3612417 0
      outer loop
         vertex 5.101303 3.158593 8
         vertex 5.101303 3.158593 0
         vertex 5.897839 1.102497 0
      endloop
   endfacet
   facet normal -0.9324722 -0.3612417 0
      outer loop
         vertex 5.897839 1.102497 8
         vertex 5.101303 3.158593 8
         vertex 5.897839 1.102497 0
      endloop
   endfacet
   facet normal -0.739009 -0.6736956 0
      outer loop
         vertex 3.615808 4.788104 8
         vertex 3.615808 4.788104 0
         vertex 5.101303 3.158593 0
      endloop
   endfacet
   facet normal -0.739009 -0.6736956 0
      outer loop
         vertex 5.101303 3.158593 8
         vertex 3.615808 4.788104 8
         vertex 5.101303 3.158593 0
      endloop
   endfacet
   facet normal -0.4457382 -0.8951634 0
      outer loop
         vertex 1.641978 5.770954 8
         vertex 1.641978 5.770954 0
         vertex 3.615808 4.788104 0
      endloop
   endfacet
   facet normal -0.4457382 -0.8951634 0
      outer loop
         vertex 3.615808 4.788104 8
         vertex 1.641978 5.770954 8
         vertex 3.615808 4.788104 0
      endloop
   endfacet
   facet normal -0.09226856 -0.9957342 0
      outer loop
         vertex -0.5536101 5.974405 8
         vertex -0.5536101 5.974405 0
         vertex 1.641978 5.770954 0
      endloop
   endfacet
   facet normal -0.09226856 -0.9957342 0
      outer loop
         vertex 1.641978 5.770954 8
         vertex -0.5536101 5.974405 8
         vertex 1.641978 5.770954 0
      endloop
   endfacet
   facet normal 0.2736631 -0.9618256 0
      outer loop
         vertex -2.67443 5.37098 8
         vertex -2.67443 5.37098 0
         vertex -0.5536101 5.974405 0
      endloop
   endfacet
   facet normal 0.2736631 -0.9618256 0
      outer loop
         vertex -0.5536101 5.974405 8
         vertex -2.67443 5.37098 8
         vertex -0.5536101 5.974405 0
      endloop
   endfacet
   facet normal 0.6026347 -0.7980172 0
      outer loop
         vertex -4.434053 4.042174 8
         vertex -4.434053 4.042174 0
         vertex -2.67443 5.37098 0
      endloop
   endfacet
   facet normal 0.6026347 -0.7980172 0
      outer loop
         vertex -2.67443 5.37098 8
         vertex -4.434053 4.042174 8
         vertex -2.67443 5.37098 0
      endloop
   endfacet
   facet normal 0.8502171 -0.5264322 0
      outer loop
         vertex -5.594833 2.16745 8
         vertex -5.594833 2.16745 0
         vertex -4.434053 4.042174 0
      endloop
   endfacet
   facet normal 0.8502171 -0.5264322 0
      outer loop
         vertex -4.434053 4.042174 8
         vertex -5.594833 2.16745 8
         vertex -4.434053 4.042174 0
      endloop
   endfacet
   facet normal 0.9829731 -0.1837495 0
      outer loop
         vertex -6 2.204364E-15 8
         vertex -6 2.204364E-15 0
         vertex -5.594833 2.16745 0
      endloop
   endfacet
   facet normal 0.9829731 -0.1837495 0
      outer loop
         vertex -5.594833 2.16745 8
         vertex -6 2.204364E-15 8
         vertex -5.594833 2.16745 0
      endloop
   endfacet
   facet normal -0.9965845 -0.08257929 0
      outer loop
         vertex -30 3.67394E-15 0
         vertex -29.59084 -4.937838 0
         vertex -29.59084 -4.937838 8
      endloop
   endfacet
   facet normal -0.9965845 -0.08257929 0
      outer loop
         vertex -30 3.67394E-15 0
         vertex -29.59084 -4.937838 8
         vertex -30 3.67394E-15 8
      endloop
   endfacet
   facet normal -0.9694003 -0.2454855 0
      outer loop
         vertex -29.59084 -4.937838 0
         vertex -28.37452 -9.740984 0
         vertex -28.37452 -9.740984 8
      endloop
   endfacet
   facet normal -0.9694003 -0.2454855 0
      outer loop
         vertex -29.59084 -4.937838 0
         vertex -28.37452 -9.740984 8
         vertex -29.59084 -4.937838 8
      endloop
   endfacet
   facet normal -0.9157733 -0.4016955 0
      outer loop
         vertex -28.37452 -9.740984 0
         vertex -26.38421 -14.27842 0
         vertex -26.38421 -14.27842 8
      endloop
   endfacet
   facet normal -0.9157733 -0.4016955 0
      outer loop
         vertex -28.37452 -9.740984 0
         vertex -26.38421 -14.27842 8
         vertex -28.37452 -9.740984 8
      endloop
   endfacet
   facet normal -0.8371666 -0.546948 0
      outer loop
         vertex -26.38421 -14.27842 0
         vertex -23.67422 -18.42638 0
         vertex -23.67422 -18.42638 8
      endloop
   endfacet
   facet normal -0.8371666 -0.546948 0
      outer loop
         vertex -26.38421 -14.27842 0
         vertex -23.67422 -18.42638 8
         vertex -26.38421 -14.27842 8
      endloop
   endfacet
   facet normal -0.7357239 -0.6772816 0
      outer loop
         vertex -23.67422 -18.42638 0
         vertex -20.31845 -22.07172 0
         vertex -20.31845 -22.07172 8
      endloop
   endfacet
   facet normal -0.7357239 -0.6772816 0
      outer loop
         vertex -23.67422 -18.42638 0
         vertex -20.31845 -22.07172 8
         vertex -23.67422 -18.42638 8
      endloop
   endfacet
   facet normal -0.6142126 -0.7891406 0
      outer loop
         vertex -20.31845 -22.07172 0
         vertex -16.40845 -25.11499 0
         vertex -16.40845 -25.11499 8
      endloop
   endfacet
   facet normal -0.6142126 -0.7891406 0
      outer loop
         vertex -20.31845 -22.07172 0
         vertex -16.40845 -25.11499 8
         vertex -20.31845 -22.07172 8
      endloop
   endfacet
   facet normal -0.4759474 -0.8794738 0
      outer loop
         vertex -16.40845 -25.11499 0
         vertex -12.05086 -27.4732 0
         vertex -12.05086 -27.4732 8
      endloop
   endfacet
   facet normal -0.4759474 -0.8794738 0
      outer loop
         vertex -16.40845 -25.11499 0
         vertex -12.05086 -27.4732 8
         vertex -16.40845 -25.11499 8
      endloop
   endfacet
   facet normal -0.3246995 -0.9458172 0
      outer loop
         vertex -12.05086 -27.4732 0
         vertex -7.364564 -29.08201 0
         vertex -7.364564 -29.08201 8
      endloop
   endfacet
   facet normal -0.3246995 -0.9458172 0
      outer loop
         vertex -12.05086 -27.4732 0
         vertex -7.364564 -29.08201 8
         vertex -12.05086 -27.4732 8
      endloop
   endfacet
   facet normal -0.1645946 -0.9863613 0
      outer loop
         vertex -7.364564 -29.08201 0
         vertex -2.47738 -29.89754 0
         vertex -2.47738 -29.89754 8
      endloop
   endfacet
   facet normal -0.1645946 -0.9863613 0
      outer loop
         vertex -7.364564 -29.08201 0
         vertex -2.47738 -29.89754 8
         vertex -7.364564 -29.08201 8
      endloop
   endfacet
   facet normal 0 -1 0
      outer loop
         vertex -2.47738 -29.89754 0
         vertex 2.47738 -29.89754 0
         vertex 2.47738 -29.89754 8
      endloop
   endfacet
   facet normal 0 -1 0
      outer loop
         vertex -2.47738 -29.89754 0
         vertex 2.47738 -29.89754 8
         vertex -2.47738 -29.89754 8
      endloop
   endfacet
   facet normal 0.1645946 -0.9863613 0
      outer loop
         vertex 2.47738 -29.89754 0
         vertex 7.364564 -29.08201 0
         vertex 7.364564 -29.08201 8
      endloop
   endfacet
   facet normal 0.1645946 -0.9863613 0
      outer loop
         vertex 2.47738 -29.89754 0
         vertex 7.364564 -29.08201 8
         vertex 2.47738 -29.89754 8
      endloop
   endfacet
   facet normal 0.3246995 -0.9458172 0
      outer loop
         vertex 7.364564 -29.08201 0
         vertex 12.05086 -27.4732 0
         vertex 12.05086 -27.4732 8
      endloop
   endfacet
   facet normal 0.3246995 -0.9458172 0
      outer loop
         vertex 7.364564 -29.08201 0
         vertex 12.05086 -27.4732 8
         vertex 7.364564 -29.08201 8
      endloop
   endfacet
   facet normal 0.4759474 -0.8794738 0
      outer loop
         vertex 12.05086 -27.4732 0
         vertex 16.40845 -25.11499 0
         vertex 16.40845 -25.11499 8
      endloop
   endfacet
   facet normal 0.4759474 -0.8794738 0
      outer loop
         vertex 12.05086 -27.4732 0
         vertex 16.40845 -25.11499 8
         vertex 12.05086 -27.4732 8
      endloop
   endfacet
   facet normal 0.6142126 -0.7891406 0
      outer loop
         vertex 16.40845 -25.11499 0
         vertex 20.31845 -22.07172 0
         vertex 20.31845 -22.07172 8
      endloop
   endfacet
   facet normal 0.6142126 -0.7891406 0
      outer loop
         vertex 16.40845 -25.11499 0
         vertex 20.31845 -22.07172 8
         vertex 16.40845 -25.11499 8
      endloop
   endfacet
   facet normal 0.7357239 -0.6772816 0
      outer loop
         vertex 20.31845 -22.07172 0
         vertex 23.67422 -18.42638 0
         vertex 23.67422 -18.42638 8
      endloop
   endfacet
   facet normal 0.7357239 -0.6772816 0
      outer loop
         vertex 20.31845 -22.07172 0
         vertex 23.67422 -18.42638 8
         vertex 20.31845 -22.07172 8
      endloop
   endfacet
   facet normal 0.8371666 -0.546948 0
      outer loop
         vertex 23.67422 -18.42638 0
         vertex 26.38421 -14.27842 0
         vertex 26.38421 -14.27842 8
      endloop
   endfacet
   facet normal 0.8371666 -0.546948 0
      outer loop
         vertex 23.67422 -18.42638 0
         vertex 26.38421 -14.27842 8
         vertex 23.67422 -18.42638 8
      endloop
   endfacet
   facet normal 0.9157733 -0.4016955 0
      outer loop
         vertex 26.38421 -14.27842 0
         vertex 28.37452 -9.740984 0
         vertex 28.37452 -9.740984 8
      endloop
   endfacet
   facet normal 0.9157733 -0.4016955 0
      outer loop
         vertex 26.38421 -14.27842 0
         vertex 28.37452 -9.740984 8
         vertex 26.38421 -14.27842 8
      endloop
   endfacet
   facet normal 0.9694003 -0.2454855 0
      outer loop
         vertex 28.37452 -9.740984 0
         vertex 29.59084 -4.937838 0
         vertex 29.59084 -4.937838 8
      endloop
   endfacet
   facet normal 0.9694003 -0.2454855 0
      outer loop
         vertex 28.37452 -9.740984 0
         vertex 29.59084 -4.937838 8
         vertex 28.37452 -9.740984 8
      endloop
   endfacet
   facet normal 0.9965845 -0.08257929 0
      outer loop
         vertex 29.59084 -4.937838 0
         vertex 30 -7.34788E-15 0
         vertex 30 -7.34788E-15 8
      endloop
   endfacet
   facet normal 0.9965845 -0.08257929 0
      outer loop
         vertex 29.59084 -4.937838 0
         vertex 30 -7.34788E-15 8
         vertex 29.59084 -4.937838 8
      endloop
   endfacet
   facet normal 0.9965845 0.08257929 0
      outer loop
         vertex 30 -7.34788E-15 0
         vertex 29.59084 4.937838 0
         vertex 29.59084 4.937838 8
      endloop
   endfacet
   facet normal 0.9965845 0.08257929 0
      outer loop
         vertex 30 -7.34788E-15 0
         vertex 29.59084 4.937838 8
         vertex 30 -7.34788E-15 8
      endloop
   endfacet
   facet normal 0.9694003 0.2454855 0
      outer loop
         vertex 29.59084 4.937838 0
         vertex 28.37452 9.740984 0
         vertex 28.37452 9.740984 8
      endloop
   endfacet
   facet normal 0.9694003 0.2454855 0
      outer loop
         vertex 29.59084 4.937838 0
         vertex 28.37452 9.740984 8
         vertex 29.59084 4.937838 8
      endloop
   endfacet
   facet normal 0.9157733 0.4016955 0
      outer loop
         vertex 28.37452 9.740984 0
         vertex 26.38421 14.27842 0
         vertex 26.38421 14.27842 8
      endloop
   endfacet
   facet normal 0.9157733 0.4016955 0
      outer loop
         vertex 28.37452 9.740984 0
         vertex 26.38421 14.27842 8
         vertex 28.37452 9.740984 8
      endloop
   endfacet
   facet normal 0.8371666 0.546948 0
      outer loop
         vertex 26.38421 14.27842 0
         vertex 23.67422 18.42638 0
         vertex 23.67422 18.42638 8
      endloop
   endfacet
   facet normal 0.8371666 0.546948 0
      outer loop
         vertex 26.38421 14.27842 0
         vertex 23.67422 18.42638 8
         vertex 26.38421 14.27842 8
      endloop
   endfacet
   facet normal 0.7357239 0.6772816 0
      outer loop
         vertex 23.67422 18.42638 0
         vertex 20.31845 22.07172 0
         vertex 20.31845 22.07172 8
      endloop
   endfacet
   facet normal 0.7357239 0.6772816 0
      outer loop
         vertex 23.67422 18.42638 0
         vertex 20.31845 22.07172 8
         vertex 23.67422 18.42638 8
      endloop
   endfacet
   facet normal 0.6142126 0.7891406 0
      outer loop
         vertex 20.31845 22.07172 0
         vertex 16.40845 25.11499 0
         vertex 16.40845 25.11499 8
      endloop
   endfacet
   facet normal 0.6142126 0.7891406 0
      outer loop
         vertex 20.31845 22.07172 0
         vertex 16.40845 25.11499 8
         vertex 20.31845 22.07172 8
      endloop
   endfacet
   facet normal 0.4759474 0.8794738 0
      outer loop
         vertex 16.40845 25.11499 0
         vertex 12.05086 27.4732 0
         vertex 12.05086 27.4732 8
      endloop
   endfacet
   facet normal 0.4759474 0.8794738 0
      outer loop
         vertex 16.40845 25.11499 0
         vertex 12.05086 27.4732 8
         vertex 16.40845 25.11499 8
      endloop
   endfacet
   facet normal 0.3246995 0.9458172 0
      outer loop
         vertex 12.05086 27.4732 0
         vertex 7.364564 29.08201 0
         vertex 7.364564 29.08201 8
      endloop
   endfacet
   facet normal 0.3246995 0.9458172 0
      outer loop
         vertex 12.05086 27.4732 0
         vertex 7.364564 29.08201 8
         vertex 12.05086 27.4732 8
      endloop
   endfacet
   facet normal 0.1645946 0.9863613 0
      outer loop
         vertex 7.364564 29.08201 0
         vertex 2.47738 29.89754 0
         vertex 2.47738 29.89754 8
      endloop
   endfacet
   facet normal 0.1645946 0.9863613 0
      outer loop
         vertex 7.364564 29.08201 0
         vertex 2.47738 29.89754 8
         vertex 7.364564 29.08201 8
      endloop
   endfacet
   facet normal 0 1 0
      outer loop
         vertex 2.47738 29.89754 0
         vertex -2.47738 29.89754 0
         vertex -2.47738 29.89754 8
      endloop
   endfacet
   facet normal 0 1 0
      outer loop
         vertex 2.47738 29.89754 0
         vertex -2.47738 29.89754 8
         vertex 2.47738 29.89754 8
      endloop
   endfacet
   facet normal -0.1645946 0.9863613 0
      outer loop
         vertex -2.47738 29.89754 0
         vertex -7.364564 29.08201 0
         vertex -7.364564 29.08201 8
      endloop
   endfacet
   facet normal -0.1645946 0.9863613 0
      outer loop
         vertex -2.47738 29.89754 0
         vertex -7.364564 29.08201 8
         vertex -2.47738 29.89754 8
      endloop
   endfacet
   facet normal -0.3246995 0.9458172 0
      outer loop
         vertex -7.364564 29.08201 0
         vertex -12.05086 27.4732 0
         vertex -12.05086 27.4732 8
      endloop
   endfacet
   facet normal -0.3246995 0.9458172 0
      outer loop
         vertex -7.364564 29.08201 0
         vertex -12.05086 27.4732 8
         vertex -7.364564 29.08201 8
      endloop
   endfacet
   facet normal -0.4759474 0.8794738 0
      outer loop
         vertex -12.05086 27.4732 0
         vertex -16.40845 25.11499 0
         vertex -16.40845 25.11499 8
      endloop
   endfacet
   facet normal -0.4759474 0.8794738 0
      outer loop
         vertex -12.05086 27.4732 0
         vertex -16.40845 25.11499 8
         vertex -12.05086 27.4732 8
      endloop
   endfacet
   facet normal -0.6142126 0.7891406 0
      outer loop
         vertex -16.40845 25.11499 0
         vertex -20.31845 22.07172 0
         vertex -20.31845 22.07172 8
      endloop
   endfacet
   facet normal -0.6142126 0.7891406 0
      outer loop
         vertex -16.40845 25.11499 0
         vertex -20.31845 22.07172 8
         vertex -16.40845 25.11499 8
      endloop
   endfacet
   facet normal -0.7357239 0.6772816 0
      outer loop
         vertex -20.31845 22.07172 0
         vertex -23.67422 18.42638 0
         vertex -23.67422 18.42638 8
      endloop
   endfacet
   facet normal -0.7357239 0.6772816 0
      outer loop
         vertex -20.31845 22.07172 0
         vertex -23.67422 18.42638 8
         vertex -20.31845 22.07172 8
      endloop
   endfacet
   facet normal -0.8371666 0.546948 0
      outer loop
         vertex -23.67422 18.42638 0
         vertex -26.38421 14.27842 0
         vertex -26.38421 14.27842 8
      endloop
   endfacet
   facet normal -0.8371666 0.546948 0
      outer loop
         vertex -23.67422 18.42638 0
         vertex -26.38421 14.27842 8
         vertex -23.67422 18.42638 8
      endloop
   endfacet
   facet normal -0.9157733 0.4016955 0
      outer loop
         vertex -26.38421 14.27842 0
         vertex -28.37452 9.740984 0
         vertex -28.37452 9.740984 8
      endloop
   endfacet
   facet normal -0.9157733 0.4016955 0
      outer loop
         vertex -26.38421 14.27842 0
         vertex -28.37452 9.740984 8
         vertex -26.38421 14.27842 8
      endloop
   endfacet
   facet normal -0.9694003 0.2454855 0
      outer loop
         vertex -28.37452 9.740984 0
         vertex -29.59084 4.937838 0
         vertex -29.59084 4.937838 8
      endloop
   endfacet
   facet normal -0.9694003 0.2454855 0
      outer loop
         vertex -28.37452 9.740984 0
         vertex -29.59084 4.937838 8
         vertex -28.37452 9.740984 8
      endloop
   endfacet
   facet normal -0.9965845 0.08257929 0
      outer loop
         vertex -29.59084 4.937838 0
         vertex -30 1.102182E-14 0
         vertex -30 1.102182E-14 8
      endloop
   endfacet
   facet normal -0.9965845 0.08257929 0
      outer loop
         vertex -29.59084 4.937838 0
         vertex -30 1.102182E-14 8
         vertex -29.59084 4.937838 8
      endloop
   endfacet
endsolid
